<svg id="Calque_1" data-name="Calque 1" xmlns="http://www.w3.org/2000/svg" width="416" height="40" viewBox="0 0 416 40"><title>logo</title><path d="M296.21,35.86c4.57,0,6.29-3.86,6.29-7.43s-1.57-7.29-6.71-7.29h-3.43V35.86Zm-8.29-18.57h8.43c6.71,0,10.71,4,10.71,11.14s-4.86,11.14-10.57,11.14h-8.57Z" style="fill:#00afec"/><path d="M323.21,17.29h4.43v13c0,7-4.43,9.71-9.29,9.71s-9.29-2.71-9.29-9.71v-13h4.43V30.43c0,3.71,1.71,5.71,4.86,5.71s4.86-2,4.86-5.71Z" style="fill:#00afec"/><path d="M337.93,27.14c3,0,3.86-1.57,3.86-3s-.71-3-4-3h-2.86v6.14h3Zm-.29,3.71h-2.57v8.86h-4.43V17.29h8.29c4.71,0,7.29,3,7.29,6.57,0,2.29-1.29,5.43-4.14,6.29l5.14,9.43h-5.29Z" style="fill:#00afec"/><path d="M356.79,22.71h0l-2.86,8.71h5.71Zm4,12.29h-8.14l-1.43,4.71h-4.86l8.14-22.29h4.71l8,22.29h-4.86Z" style="fill:#00afec"/><path d="M375.5,35.86c2.86,0,3.86-1.29,3.86-2.86s-.86-2.86-3.43-2.86h-3.29v5.71Zm-.14-9.43c2.14,0,3.57-1,3.57-2.71s-1.43-2.57-3.14-2.57h-3.14v5.29Zm-7.14-9.14h7.86c4.71,0,7.14,2.43,7.14,6a4.82,4.82,0,0,1-3,4.57h0A5,5,0,0,1,383.93,33c0,4.14-3.14,6.57-7.71,6.57h-8Z" style="fill:#00afec"/><polygon points="386.21 17.29 390.64 17.29 390.64 35.43 399.21 35.43 399.21 39.57 386.21 39.57 386.21 17.29" style="fill:#00afec"/><polygon points="400.93 17.29 415.07 17.29 415.07 21.29 405.36 21.29 405.36 26.29 414.79 26.29 414.79 30.29 405.36 30.29 405.36 35.57 415.07 35.57 415.07 39.57 400.93 39.57 400.93 17.29" style="fill:#00afec"/><path d="M291.64,10.86c2,0,2.86-1.71,2.86-3.29s-.71-3.29-3-3.29h-1.57V11h1.71Zm-3.71-8.43h3.86c3,0,4.86,1.86,4.86,5a4.68,4.68,0,0,1-4.86,5h-3.86Z" style="fill:#00afec"/><polygon points="297.64 2.43 304.07 2.43 304.07 4.29 299.64 4.29 299.64 6.57 303.93 6.57 303.93 8.29 299.64 8.29 299.64 10.71 304.07 10.71 304.07 12.57 297.64 12.57 297.64 2.43" style="fill:#00afec"/><path d="M311.64,10.86c2,0,2.86-1.71,2.86-3.29s-.71-3.29-3-3.29h-1.57V11h1.71Zm-3.71-8.43h3.86c3,0,4.86,1.86,4.86,5a4.68,4.68,0,0,1-4.86,5h-3.86Z" style="fill:#00afec"/><path d="M320.93,0h1.86l-1.86,1.86h-1.14ZM317.5,2.43h6.43V4.29H319.5V6.57h4.29V8.43H319.5v2.29h4.43v1.86H317.5Z" style="fill:#00afec"/><polygon points="330.5 2.43 332.64 2.43 329.36 12.57 327.21 12.57 323.93 2.43 326.07 2.43 328.36 9.86 328.36 9.86 330.5 2.43" style="fill:#00afec"/><polygon points="333.07 2.43 339.5 2.43 339.5 4.29 335.07 4.29 335.07 6.57 339.36 6.57 339.36 8.29 335.07 8.29 335.07 10.71 339.5 10.71 339.5 12.57 333.07 12.57 333.07 2.43" style="fill:#00afec"/><polygon points="340.5 2.43 342.5 2.43 342.5 10.71 346.36 10.71 346.36 12.57 340.5 12.57 340.5 2.43" style="fill:#00afec"/><path d="M351.5,4.14c-1.86,0-2.86,1.57-2.86,3.43s1,3.43,2.86,3.43,2.86-1.57,2.86-3.43-1-3.43-2.86-3.43m0-1.86c3.14,0,4.86,2.57,4.86,5.29s-1.71,5.29-4.86,5.29-4.86-2.57-4.86-5.29,1.71-5.29,4.86-5.29" style="fill:#00afec"/><path d="M360.64,7.14a1.38,1.38,0,0,0,1.57-1.43,1.39,1.39,0,0,0-1.57-1.43H359.5v3h1.14ZM357.5,2.43h3.29c1.57,0,3.57.71,3.57,3.14a3,3,0,0,1-3.29,3.14h-1.43v3.71h-2v-10Z" style="fill:#00afec"/><path d="M367.93,7.14a1.38,1.38,0,0,0,1.57-1.43,1.39,1.39,0,0,0-1.57-1.43h-1.14v3h1.14Zm-3.14-4.71h3.29c1.57,0,3.57.71,3.57,3.14a3,3,0,0,1-3.29,3.14h-1.43v3.71h-2v-10Z" style="fill:#00afec"/><polygon points="372.21 2.43 378.64 2.43 378.64 4.29 374.21 4.29 374.21 6.57 378.5 6.57 378.5 8.29 374.21 8.29 374.21 10.71 378.64 10.71 378.64 12.57 372.21 12.57 372.21 2.43" style="fill:#00afec"/><polygon points="388.07 5.86 388.07 5.86 385.36 12.57 384.21 12.57 381.5 6 381.5 6 381.5 12.57 379.64 12.57 379.64 2.43 381.93 2.43 384.79 9.29 387.79 2.43 390.07 2.43 390.07 12.57 388.07 12.57 388.07 5.86" style="fill:#00afec"/><polygon points="391.5 2.43 397.93 2.43 397.93 4.29 393.5 4.29 393.5 6.57 397.79 6.57 397.79 8.29 393.5 8.29 393.5 10.71 397.93 10.71 397.93 12.57 391.5 12.57 391.5 2.43" style="fill:#00afec"/><polygon points="400.79 5.71 400.79 5.71 400.79 12.57 398.79 12.57 398.79 2.43 401.07 2.43 405.07 9.29 405.07 9.29 405.07 2.43 407.07 2.43 407.07 12.57 404.93 12.57 400.79 5.71" style="fill:#00afec"/><polygon points="410.5 4.29 407.79 4.29 407.79 2.43 415.07 2.43 415.07 4.29 412.5 4.29 412.5 12.57 410.5 12.57 410.5 4.29" style="fill:#00afec"/><path d="M50.64,32.71c4.57,0,6.29-2,6.29-4.57,0-2.29-1.43-4.71-5.71-4.71H45.79v9.43h4.86Zm-.29-15.43c3.43,0,5.86-1.57,5.86-4.43s-2.29-4.29-5.14-4.29h-5v8.86h4.29ZM38.5,2.29h13c7.86,0,11.86,4,11.86,10a8.08,8.08,0,0,1-4.86,7.57V20c3.29.71,6.14,3.71,6.14,8.29C64.64,35,59.5,39,51.93,39H38.64V2.29Z" style="fill:#5392cb"/><path d="M65.21,2.29H81.93V26.43c0,11.57-6.86,12.71-14.29,12.71H65.36V32.86h3.71c3.57,0,5.57-1.14,5.57-4.86V8.71H65.21Z" style="fill:#5392cb"/><polygon points="86.79 2.29 110.21 2.29 110.21 8.71 94.21 8.71 94.21 17.14 109.79 17.14 109.79 23.57 94.21 23.57 94.21 32.43 110.21 32.43 110.21 38.86 86.79 38.86 86.79 2.29" style="fill:#5392cb"/><path d="M137.64,15.29c-1.14-4.71-4.29-7.14-8.43-7.14-6,0-9.57,5.71-9.57,12.57,0,7.71,3.86,12.43,9.71,12.43,3.57,0,6.86-2.29,8.14-6.43l7.57.57c-2.57,8.14-8.43,12.43-16,12.43-10,0-17-6.71-17-19,0-11,7-19,17-19,7.71,0,14,3.86,16,13.14Z" style="fill:#5392cb"/><polygon points="155.79 8.71 146.21 8.71 146.21 2.29 172.79 2.29 172.79 8.71 163.07 8.71 163.07 38.86 155.79 38.86 155.79 8.71" style="fill:#5392cb"/><rect x="175.79" y="2.29" width="7.29" height="36.57" style="fill:#5392cb"/><polygon points="188.79 2.29 210.21 2.29 210.21 8.71 196.07 8.71 196.07 17.14 209.93 17.14 209.93 23.57 196.07 23.57 196.07 38.86 188.79 38.86 188.79 2.29" style="fill:#5392cb"/><path d="M230.64,11.86c0-2.57-2.43-4.14-5.43-4.14-3.71,0-5.86,1.57-5.86,4s2.43,3.71,4.29,4.29l6.71,2.14c4.86,1.57,8.29,4.43,8.29,10,0,4.43-3.29,11.14-13.29,11.14-12.71,0-13.86-8.29-13.86-11.43l7.29-.14c0,3.86,3,5.43,6.57,5.43,2.43,0,6-1.29,6-4,0-2-.86-3-4.43-4.29l-8-2.86a9.92,9.92,0,0,1-6.86-9.14c0-4.71,3.29-11.43,12.71-11.43,11.29,0,13.14,7.57,13.14,10.14Z" style="fill:#5392cb"/><path d="M18.64,8.29C11.93,8.29,8.5,14.14,8.5,20.71s3.43,12.43,10.14,12.43,10.14-5.86,10.14-12.43S25.5,8.29,18.64,8.29m0-6.43c11.29,0,17.71,9.14,17.71,18.86S29.93,39.57,18.64,39.57.93,30.43.93,20.71,7.36,1.86,18.64,1.86" style="fill:#5392cb"/><path d="M254.79,15.14A6.33,6.33,0,0,1,256.5,13l-5.57-6.14a18.76,18.76,0,0,0-3.57,4.57Z" style="fill:#65b039"/><path d="M268.5,10.86a12.34,12.34,0,0,1,2.29,1.43l5.57-6.14a19.78,19.78,0,0,0-5-3.14Z" style="fill:#e6b732"/><path d="M281.36,12.71l-7.43,3.71a17.27,17.27,0,0,1,.71,2.57l8.29-.71a22.88,22.88,0,0,0-1.57-5.57" style="fill:#c21b29"/><path d="M273.36,15.29l7.43-3.71A18.25,18.25,0,0,0,277.36,7l-5.57,6.14a11.83,11.83,0,0,1,1.57,2.14" style="fill:#4c983b"/><path d="M253.36,20.57V20l-8.29-.71v1.29a16.05,16.05,0,0,0,.57,4.57l8-2.29a5.92,5.92,0,0,1-.29-2.29" style="fill:#437c3f"/><path d="M272.36,27.43a12.34,12.34,0,0,1-2,1.86l4.43,7a22.63,22.63,0,0,0,4.29-4Z" style="fill:#f8c41a"/><path d="M274.79,20.57a12.5,12.5,0,0,1-.29,2.29l8,2.29a16.05,16.05,0,0,0,.57-4.57V19.43l-8.29.71v.43" style="fill:#e23529"/><path d="M255.79,27.57l-6.57,5a18.1,18.1,0,0,0,4.29,3.86l4.43-7a24.83,24.83,0,0,1-2.14-1.86" style="fill:#f39d2a"/><path d="M253.36,18.86a8.62,8.62,0,0,1,.86-2.71l-7.43-3.71A14.74,14.74,0,0,0,245.21,18Z" style="fill:#2b95d0"/><path d="M273.64,37l-4.43-7a9.57,9.57,0,0,1-2.57,1l1.57,8.14A18,18,0,0,0,273.64,37" style="fill:#a31c3e"/><path d="M274.21,24a12.66,12.66,0,0,1-1.14,2.43l6.57,5a21.66,21.66,0,0,0,2.57-5.14Z" style="fill:#42bbe0"/><path d="M265.5,31.14a5.86,5.86,0,0,1-1.57.14,4,4,0,0,1-1.29-.14l-1.57,8.14a18.21,18.21,0,0,0,2.86.14,23.36,23.36,0,0,0,3.14-.29Z" style="fill:#e8602c"/><path d="M264.64,9.86a9.22,9.22,0,0,1,2.71.57l3-7.71a18.28,18.28,0,0,0-5.57-1V9.86Z" style="fill:#de1b35"/><path d="M261.64,31a10.73,10.73,0,0,1-2.57-1l-4.43,7a19.55,19.55,0,0,0,5.43,2.14Z" style="fill:#d61160"/><path d="M260.79,10.29a8.32,8.32,0,0,1,2.71-.43V1.57a19.2,19.2,0,0,0-5.71,1Z" style="fill:#204567"/><path d="M255.07,26.57A7.25,7.25,0,0,1,253.79,24l-8,2.29a22.66,22.66,0,0,0,2.57,5.29Z" style="fill:#cb9928"/><path d="M257.36,12.14a12.34,12.34,0,0,1,2.29-1.43l-3-7.71a15.4,15.4,0,0,0-4.86,3Z" style="fill:#0b6499"/></svg>